<?xml version="1.0" encoding="UTF-8"?>
<svg width="40px" height="40px" viewBox="0 0 40 40" version="1.1" xmlns="http://www.w3.org/2000/svg" xmlns:xlink="http://www.w3.org/1999/xlink">
    <!-- Generator: Sketch 59.1 (86144) - https://sketch.com -->
    <title>编组 3备份</title>
    <desc>Created with Sketch.</desc>
    <g id="页面-1" stroke="none" stroke-width="1" fill="none" fill-rule="evenodd">
        <g id="账户明细-余额" transform="translate(-16.000000, -88.000000)">
            <g id="编组-3备份" transform="translate(16.000000, 88.000000)">
                <circle id="椭圆形备份-3" fill="#DFC777" cx="20" cy="20" r="20"></circle>
                <path d="M27.8396976,14.3518229 L27.8921012,14.4080494 C30.6546673,17.4194576 29.635157,23.1595473 25.6149612,27.2288986 C23.5009981,29.3687095 20.9782748,30.6204692 18.6595263,30.8886064 C20.5284935,30.1772237 22.4464011,28.928218 24.1593515,27.194323 C28.2614985,23.0420185 29.7616592,17.5528799 27.8396976,14.3518229 Z M24.9884479,10.6673701 C28.506431,12.6984787 28.9779793,18.4678881 26.0416805,23.5537069 C23.1053817,28.6395256 17.8731524,31.1158575 14.3551692,29.084749 C10.8371861,27.0536405 10.3656378,21.284231 13.3019366,16.1984123 C16.2382354,11.1125935 21.4704647,8.63626163 24.9884479,10.6673701 Z M24.0550178,11.9707582 C22.0452644,11.0210848 19.2809086,11.427309 17.1345215,13.1757416 C14.9683526,14.9402884 14.0779334,17.5453956 14.7235911,19.643787 L14.7235911,19.643787 L14.7435992,19.5244878 C15.067391,17.7416807 16.2384607,15.8150157 18.1001436,14.2923355 C19.9870504,12.7490245 22.1740726,11.9555197 24.0550178,11.9707582 Z" id="形状结合" fill="#FFFFFF"></path>
            </g>
        </g>
    </g>
</svg>