<?xml version="1.0" encoding="UTF-8"?>
<svg width="40px" height="40px" viewBox="0 0 40 40" version="1.1" xmlns="http://www.w3.org/2000/svg" xmlns:xlink="http://www.w3.org/1999/xlink">
    <!-- Generator: Sketch 59.1 (86144) - https://sketch.com -->
    <title>形状结合备份</title>
    <desc>Created with Sketch.</desc>
    <g id="页面-1" stroke="none" stroke-width="1" fill="none" fill-rule="evenodd">
        <g id="账户明细-优惠券明细" transform="translate(-16.000000, -131.000000)" fill="#FF6030">
            <path d="M36,131 C47.045695,131 56,139.954305 56,151 C56,162.045695 47.045695,171 36,171 C24.954305,171 16,162.045695 16,151 C16,139.954305 24.954305,131 36,131 Z M44.9375843,144 L28,144 L28,148.062811 L28.021979,148.062811 L28.021979,150.574534 L28.1560624,150.535102 C28.2470019,150.513347 28.3411976,150.50111 28.4395797,150.50111 C29.1272079,150.50111 29.6892419,151.045673 29.6892419,151.718729 C29.6892419,152.391785 29.1303477,152.936349 28.4395797,152.936349 C28.2920065,152.936349 28.1538529,152.908815 28.0251188,152.862924 L28.0251188,152.862924 L28.0251188,156.188433 L28,156.188433 L28,158.626732 L44.9344444,158.626732 L44.9344444,154.51803 L44.9375843,154.517648 L44.9407241,154.514971 L44.9407241,152.859865 L44.806757,152.899297 C44.7160501,152.921052 44.6225522,152.933289 44.5262633,152.933289 C43.8354953,152.933289 43.2766011,152.388726 43.2766011,151.71567 C43.2734613,151.042614 43.8323554,150.49805 44.5262633,150.49805 C44.6738365,150.49805 44.8119901,150.525584 44.943864,150.571475 L44.943864,150.571475 L44.943864,148.916369 L44.9407241,148.914839 L44.9375843,148.913309 L44.9375843,144 Z M39.6416154,152.469074 L39.6416154,153.686694 L33.4585168,153.686694 L33.4585168,152.469074 L39.6416154,152.469074 Z M39.6416154,149.216989 L39.6416154,150.434609 L33.4585168,150.434609 L33.4585168,149.216989 L39.6416154,149.216989 Z" id="形状结合备份"></path>
        </g>
    </g>
</svg>