<?xml version="1.0" encoding="UTF-8"?>
<svg width="17px" height="15px" viewBox="0 0 17 15" version="1.1" xmlns="http://www.w3.org/2000/svg" xmlns:xlink="http://www.w3.org/1999/xlink">
    <!-- Generator: Sketch 59.1 (86144) - https://sketch.com -->
    <title>编组 22备份</title>
    <desc>Created with Sketch.</desc>
    <g id="页面-1" stroke="none" stroke-width="1" fill="none" fill-rule="evenodd">
        <g id="我的" transform="translate(-209.000000, -144.000000)" fill-rule="nonzero">
            <g id="编组-4" transform="translate(209.000000, 143.000000)">
                <g id="编组-22备份" transform="translate(0.000000, 1.000000)">
                    <g id="编组" transform="translate(0.363636, 0.090909)">
                        <path d="M15.5509091,6.61454545 C15.6897727,6.61454545 15.8197727,6.64045455 15.9438636,6.68363636 L15.9438636,5.12621212 C15.9409091,5.12621212 15.9409091,5.12333333 15.9379545,5.12333333 L15.9379545,0.5 L1.05693232e-13,0.5 L1.05693232e-13,4.3230303 L0.0206818182,4.3230303 L0.0206818182,6.68651515 C0.144772727,6.64333333 0.274772727,6.61742424 0.413636364,6.61742424 C1.06068182,6.61742424 1.58954545,7.12984848 1.58954545,7.76318182 C1.58954545,8.39651515 1.06363636,8.90893939 0.413636364,8.90893939 C0.274772727,8.90893939 0.144772727,8.8830303 0.0236363636,8.83984848 L0.0236363636,11.9690909 L1.05693232e-13,11.9690909 L1.05693232e-13,14.2634848 L15.935,14.2634848 L15.935,10.3972727 C15.9379545,10.3972727 15.9379545,10.3972727 15.9409091,10.3943939 L15.9409091,8.8369697 C15.8168182,8.88015152 15.6868182,8.90606061 15.5509091,8.90606061 C14.9009091,8.90606061 14.375,8.39363636 14.375,7.76030303 C14.3720455,7.1269697 14.8979545,6.61454545 15.5509091,6.61454545 Z" id="形状结合" fill="#FF6030"></path>
                        <polygon id="路径" fill="#FFFFFF" points="5.13636364 5.40909091 10.9545455 5.40909091 10.9545455 6.55484848 5.13636364 6.55484848"></polygon>
                        <polygon id="路径" fill="#FFFFFF" points="5.13636364 8.46924242 10.9545455 8.46924242 10.9545455 9.615 5.13636364 9.615"></polygon>
                    </g>
                </g>
            </g>
        </g>
    </g>
</svg>