<?xml version="1.0" encoding="UTF-8"?>
<svg width="24px" height="24px" viewBox="0 0 24 24" version="1.1" xmlns="http://www.w3.org/2000/svg" xmlns:xlink="http://www.w3.org/1999/xlink">
    <!-- Generator: Sketch 59.1 (86144) - https://sketch.com -->
    <title>切片备份 13</title>
    <desc>Created with Sketch.</desc>
    <defs>
        <rect id="path-1" x="0" y="0" width="375" height="49"></rect>
        <filter x="-0.1%" y="-0.5%" width="100.1%" height="101.0%" filterUnits="objectBoundingBox" id="filter-2">
            <feOffset dx="0" dy="0.5" in="SourceAlpha" result="shadowOffsetInner1"></feOffset>
            <feComposite in="shadowOffsetInner1" in2="SourceAlpha" operator="arithmetic" k2="-1" k3="1" result="shadowInnerInner1"></feComposite>
            <feColorMatrix values="0 0 0 0 0   0 0 0 0 0   0 0 0 0 0  0 0 0 0.25 0" type="matrix" in="shadowInnerInner1"></feColorMatrix>
        </filter>
    </defs>
    <g id="页面-1" stroke="none" stroke-width="1" fill="none" fill-rule="evenodd">
        <g id="赛事-即时" transform="translate(-175.000000, -623.000000)">
            <rect fill="#F3F4F6" x="0" y="0" width="375" height="667"></rect>
            <g id="编组" transform="translate(0.000000, 618.000000)">
                <g id="Bar">
                    <use fill-opacity="0.95" fill="#FFFFFF" fill-rule="evenodd" xlink:href="#path-1"></use>
                    <use fill="black" fill-opacity="1" filter="url(#filter-2)" xlink:href="#path-1"></use>
                </g>
                <g id="编组-12" transform="translate(175.000000, 5.000000)" stroke="#FF3B30" stroke-linejoin="round" stroke-width="1.5">
                    <g id="编组-6" transform="translate(2.500000, 3.000000)">
                        <path d="M4,0 L15,0 L15,8.5 C15,11.5375661 12.5375661,14 9.5,14 C6.46243388,14 4,11.5375661 4,8.5 L4,0 L4,0 Z" id="矩形" fill="#FF3B30"></path>
                        <path d="M19,2 L19,5.5 C19,7.43299662 17.4329966,9 15.5,9 C15.3300356,9 15.1629008,8.98788499 14.9994121,8.96447143 L15,2 L19,2 Z" id="形状结合"></path>
                        <path d="M4,2 L4,5.5 C4,7.43299662 2.43299662,9 0.5,9 C0.330035612,9 0.162900835,8.98788499 -0.00058788482,8.96447143 L2.66453526e-14,2 L4,2 Z" id="形状结合备份" transform="translate(2.000000, 5.500000) scale(-1, 1) translate(-2.000000, -5.500000) "></path>
                        <line x1="9.44823273" y1="13.6037172" x2="9.44823273" y2="16.8111516" id="直线-8"></line>
                        <line x1="9.5" y1="13" x2="9.5" y2="22" id="直线-8" transform="translate(9.500000, 17.500000) rotate(-270.000000) translate(-9.500000, -17.500000) "></line>
                    </g>
                </g>
            </g>
        </g>
    </g>
</svg>