<?xml version="1.0" encoding="UTF-8"?>
<svg width="24px" height="24px" viewBox="0 0 24 24" version="1.1" xmlns="http://www.w3.org/2000/svg" xmlns:xlink="http://www.w3.org/1999/xlink">
    <!-- Generator: Sketch 59.1 (86144) - https://sketch.com -->
    <title>切片备份 14</title>
    <desc>Created with Sketch.</desc>
    <defs>
        <rect id="path-1" x="0" y="876" width="375" height="49"></rect>
        <filter x="-0.1%" y="-0.5%" width="100.1%" height="101.0%" filterUnits="objectBoundingBox" id="filter-2">
            <feOffset dx="0" dy="0.5" in="SourceAlpha" result="shadowOffsetInner1"></feOffset>
            <feComposite in="shadowOffsetInner1" in2="SourceAlpha" operator="arithmetic" k2="-1" k3="1" result="shadowInnerInner1"></feComposite>
            <feColorMatrix values="0 0 0 0 0   0 0 0 0 0   0 0 0 0 0  0 0 0 0.25 0" type="matrix" in="shadowInnerInner1"></feColorMatrix>
        </filter>
    </defs>
    <g id="页面-1" stroke="none" stroke-width="1" fill="none" fill-rule="evenodd">
        <g id="首页" transform="translate(-101.000000, -881.000000)">
            <rect fill="#F3F4F6" x="0" y="0" width="375" height="925"></rect>
            <g id="Bar">
                <use fill-opacity="0.95" fill="#FFFFFF" fill-rule="evenodd" xlink:href="#path-1"></use>
                <use fill="black" fill-opacity="1" filter="url(#filter-2)" xlink:href="#path-1"></use>
            </g>
            <g id="编组-16" transform="translate(101.000000, 881.000000)" stroke="#333333" stroke-linejoin="round" stroke-width="1.5">
                <g id="编组-15" transform="translate(2.000000, 2.552632)">
                    <path d="M10.5,0.447368421 L21,6.44736842 L15.9983712,9.30617045 C15.9994551,9.35310521 16,9.40017318 16,9.44736842 L16,12.4473684 C16,15.7610769 13.3137085,18.4473684 10,18.4473684 C6.6862915,18.4473684 4,15.7610769 4,12.4473684 L4,9.44736842 C4,9.21348804 4.01338173,8.98273312 4.0394213,8.75582756 L0,6.44736842 L10.5,0.447368421 Z" id="形状结合"></path>
                    <polygon id="矩形备份-11" points="10.5 0.447368421 21 6.44736842 10.5 12.4473684 0 6.44736842"></polygon>
                    <line x1="19" y1="7.82236842" x2="19" y2="13.0723684" id="直线-2备份" stroke-linecap="round"></line>
                </g>
            </g>
        </g>
    </g>
</svg>