<?xml version="1.0" encoding="UTF-8"?>
<svg width="13px" height="13px" viewBox="0 0 13 13" version="1.1" xmlns="http://www.w3.org/2000/svg" xmlns:xlink="http://www.w3.org/1999/xlink">
    <!-- Generator: Sketch 59.1 (86144) - https://sketch.com -->
    <title>首页</title>
    <desc>Created with Sketch.</desc>
    <g id="页面-1" stroke="none" stroke-width="1" fill="none" fill-rule="evenodd">
        <g id="首页" transform="translate(-306.000000, -838.000000)" fill="#DFC777">
            <g id="编组-9备份" transform="translate(306.000000, 838.000000)">
                <path d="M11.1311237,3.1600702 L11.1635143,3.19566553 C12.7959398,4.97513403 12.1935019,8.36700524 9.81793162,10.7716219 C8.56773105,12.0371089 7.07558779,12.7769638 5.70447814,12.9345713 C6.81044718,12.515015 7.944777,11.7765989 8.95779863,10.7511909 C11.3828075,8.29653105 12.2689938,5.05126346 11.1311237,3.1600702 Z M9.44771919,0.985264174 C11.5265274,2.18546466 11.8051696,5.59466116 10.0700839,8.59991769 C8.33499827,11.6051742 5.2432264,13.0684613 3.16441818,11.8682608 C1.08560996,10.6680603 0.806967769,7.25886378 2.54205343,4.25360725 C4.2771391,1.24835073 7.36891097,-0.214936312 9.44771919,0.985264174 Z M8.89549903,1.75514199 C7.70797132,1.19436467 6.07485173,1.43450684 4.80676273,2.46748367 C3.52689739,3.51005342 3.0007151,5.04920657 3.38199362,6.28909317 L3.38199362,6.28909317 L3.3967393,6.20381531 C3.59193973,5.15459716 4.28256113,4.02272896 5.3773576,3.12728916 C6.49215595,2.21548971 7.78423422,1.74660498 8.89549903,1.75514199 Z" id="形状结合"></path>
            </g>
        </g>
    </g>
</svg>