<?xml version="1.0" encoding="UTF-8"?>
<svg width="19px" height="20px" viewBox="0 0 19 20" version="1.1" xmlns="http://www.w3.org/2000/svg" xmlns:xlink="http://www.w3.org/1999/xlink">
    <!-- Generator: Sketch 59.1 (86144) - https://sketch.com -->
    <title>编组 9</title>
    <desc>Created with Sketch.</desc>
    <g id="页面-1" stroke="none" stroke-width="1" fill="none" fill-rule="evenodd">
        <g id="我的" transform="translate(-26.000000, -306.000000)">
            <g id="编组-9" transform="translate(24.000000, 304.000000)">
                <rect id="矩形复制-2备份" fill="#000000" opacity="0" x="0" y="0" width="24" height="24"></rect>
                <path d="M11.4285714,2.57142857 C16.3202364,2.57142857 20.2857143,6.5369065 20.2857143,11.4285714 C20.2857143,13.6546972 19.459757,15.7524411 18.001653,17.3653487 L18,20.5718705 C17.9997559,21.0450848 17.6160715,21.4285714 17.1428571,21.4285714 L5.71428571,21.4285714 C5.24096637,21.4285714 4.85723845,21.044921 4.85714286,20.5716016 L4.85649569,17.3664616 L4.61926463,17.0931907 C3.30851205,15.5198926 2.57142857,13.5315203 2.57142857,11.4285714 C2.57142857,6.5369065 6.5369065,2.57142857 11.4285714,2.57142857 Z M11.9126638,15.4835165 C11.6381784,15.4835165 11.4135995,15.5604396 11.2264504,15.7142857 C11.0393013,15.8681319 10.9519651,16.0659341 10.9519651,16.3076923 C10.9519651,16.5494505 11.0393013,16.7472527 11.2264504,16.9010989 C11.4135995,17.0549451 11.6381784,17.1428571 11.9126638,17.1428571 C12.1871491,17.1428571 12.411728,17.0659341 12.5988771,16.9120879 C12.7860262,16.7582418 12.8858391,16.5494505 12.8858391,16.3076923 C12.8858391,16.0659341 12.7860262,15.8681319 12.6113537,15.7142857 C12.4242046,15.5604396 12.1871491,15.4835165 11.9126638,15.4835165 Z M12.1372427,9.14285714 C11.2139738,9.14285714 10.4903306,9.37362637 9.95383656,9.83516484 C9.45976294,10.2505495 9.19812851,10.8083516 9.15074236,11.5085714 L9.14285714,11.7472527 L10.5651903,11.7472527 C10.5651903,11.2857143 10.6650031,10.9230769 10.8771054,10.6703297 C11.1141609,10.3626374 11.5009357,10.2197802 12.0499064,10.2197802 C12.474111,10.2197802 12.8109794,10.3186813 13.0480349,10.5274725 C13.2726138,10.7362637 13.3973799,11.021978 13.3973799,11.3846154 C13.3973799,11.6135531 13.3194011,11.8348596 13.1634435,12.0421754 L13.0605115,12.1648352 L12.9107923,12.3186813 L12.5006109,12.6489626 C11.9335956,13.118427 11.583735,13.4715285 11.4510293,13.7142857 C11.3054689,13.9615385 11.229223,14.2545788 11.207851,14.5870472 L11.2014972,14.7912088 L11.2014972,14.9450549 L12.6363069,14.9450549 L12.6363069,14.7912088 C12.6363069,14.5274725 12.69869,14.2967033 12.823456,14.0769231 C12.9132876,13.9186813 13.0350593,13.7674725 13.1951591,13.6289231 L14.0414847,12.9615385 C14.2208359,12.8159341 14.3393637,12.7142857 14.3955084,12.6593407 C14.694947,12.3076923 14.8571429,11.8571429 14.8571429,11.3076923 C14.8571429,10.6373626 14.6076107,10.1098901 14.1085465,9.72527473 C13.6094822,9.32967033 12.9482221,9.14285714 12.1372427,9.14285714 Z" id="形状" fill="#03BC87" fill-rule="nonzero"></path>
            </g>
        </g>
    </g>
</svg>