<?xml version="1.0" encoding="UTF-8"?>
<svg width="48px" height="48px" viewBox="0 0 48 48" version="1.1" xmlns="http://www.w3.org/2000/svg" xmlns:xlink="http://www.w3.org/1999/xlink">
    <!-- Generator: Sketch 59.1 (86144) - https://sketch.com -->
    <title>编组 5</title>
    <desc>Created with Sketch.</desc>
    <g id="页面-1" stroke="none" stroke-width="1" fill="none" fill-rule="evenodd">
        <g id="首页" transform="translate(-300.000000, -327.000000)" fill-rule="nonzero">
            <g id="编组-5" transform="translate(300.000000, 327.000000)">
                <path d="M0,24 C0,32.5743741 4.574374,40.4974226 12,44.7846097 C19.4256258,49.0717968 28.5743742,49.0717968 36,44.7846097 C43.425626,40.4974226 48,32.5743741 48,24 C48,15.4256259 43.425626,7.50257742 36,3.21539032 C28.5743742,-1.07179677 19.4256258,-1.07179677 12,3.21539032 C4.574374,7.50257742 0,15.4256259 0,24 Z" id="路径-copy" fill="#E5E5E5"></path>
                <g id="更多" transform="translate(13.000000, 12.000000)" fill="#FFFFFF">
                    <g id="分组">
                        <path d="M9.17113438,1.44541353 C9.78079362,1.44541353 10.3350314,1.96511278 10.3350314,2.65804511 L10.3350314,10.6267669 C10.3350314,11.2619538 9.83621837,11.8393985 9.17113438,11.8393985 L1.46723404,11.8393985 C0.857574804,11.8393985 0.303337066,11.3196992 0.303337066,10.6267669 L0.303337066,2.65804511 C0.303337066,2.02285827 0.802150056,1.44541353 1.46723404,1.44541353 L9.17113438,1.44541353 L9.17113438,1.44541353 Z M20.9209406,13.6872068 C21.5305999,13.6872068 22.0848376,14.206906 22.0848376,14.8998383 L22.0848376,22.8685602 C22.0848376,23.503747 21.5860246,24.0811917 20.9209406,24.0811917 L13.2724748,24.0811917 C12.6628156,24.0811917 12.1085778,23.5614925 12.1085778,22.8685602 L12.1085778,14.8998383 C12.1085778,14.2646515 12.6073908,13.6872068 13.2724748,13.6872068 L20.9209406,13.6872068 Z M9.17113438,13.6872068 C9.78079362,13.6872068 10.3350314,14.206906 10.3350314,14.8998383 L10.3350314,22.8685602 C10.3350314,23.503747 9.83621837,24.0811917 9.17113438,24.0811917 L1.46723404,24.0811917 C0.857574804,24.0811917 0.303337066,23.5614925 0.303337066,22.8685602 L0.303337066,14.8998383 C0.303337066,14.2646515 0.802150056,13.6872068 1.46723404,13.6872068 L9.17113438,13.6872068 Z" id="形状"></path>
                        <path d="M23.3595711,3.98615414 L16.5424602,0.232781955 C15.9882225,-0.0559397368 15.267717,0.175037481 14.9905965,0.752481203 L11.3880691,7.85503759 C11.1109509,8.43248233 11.3326453,9.18315677 11.8868821,9.47188083 L18.7039929,13.225253 C19.2582307,13.5139747 19.9787362,13.2829975 20.2558567,12.7055538 L23.8583841,5.60299737 C24.1355023,5.02555263 23.9138079,4.3326203 23.3595711,3.98615414 Z" id="路径"></path>
                    </g>
                </g>
            </g>
        </g>
    </g>
</svg>