<?xml version="1.0" encoding="UTF-8"?>
<svg width="20px" height="19px" viewBox="0 0 20 19" version="1.1" xmlns="http://www.w3.org/2000/svg" xmlns:xlink="http://www.w3.org/1999/xlink">
    <!-- Generator: Sketch 59.1 (86144) - https://sketch.com -->
    <title>编组 16备份</title>
    <desc>Created with Sketch.</desc>
    <g id="页面-1" stroke="none" stroke-width="1" fill="none" fill-rule="evenodd">
        <g id="我的" transform="translate(-26.000000, -249.000000)">
            <g id="编组-16备份" transform="translate(24.000000, 247.000000)">
                <rect id="矩形备份-10" fill="#000000" opacity="0" x="0" y="0" width="24" height="24"></rect>
                <path d="M10.4055747,2.20057787 L21.2151169,4.34052492 C21.4190178,4.38090109 21.5960307,4.50558875 21.7019685,4.68346255 C21.8079062,4.86133635 21.8327726,5.07561233 21.7703604,5.27280152 L20.8398309,8.12345186 C20.1748797,10.1208632 19.2341162,12.8699482 18.2896973,15.3724294 L18.1763669,15.6714795 C17.460987,17.5507635 16.8569091,18.8897308 16.056776,19.7572298 C15.3046911,20.572538 14.4026461,20.9601835 13.1760207,20.9831215 L13.1297078,20.9918857 L13.1297078,20.9918857 C12.237625,21.0715199 11.189711,20.5711567 11.189711,20.5711567 L5.09285877,17.8192956 C5.09285877,17.8192956 2.21006656,16.9216635 3.07568506,13.1922634 L5.32728131,14.0973513 L6.03017163,12.3469306 L6.05352922,12.2706676 L6.05352922,12.2706676 L9.57494643,2.66507942 C9.69863636,2.32769886 10.0514302,2.13049135 10.4055747,2.20057787 Z M14.8091312,12.3081505 L10.8948163,11.0893518 C10.4226123,10.9422787 9.91429851,11.1863338 9.75937888,11.6342974 C9.61736921,12.0449082 9.82157152,12.4844341 10.2202687,12.6680637 L10.3337126,12.711586 L14.2480534,13.930434 C14.3386356,13.9587068 14.433378,13.9731388 14.5287349,13.9731898 C14.9070325,13.9731898 15.2590778,13.7450112 15.3834908,13.3854391 C15.5254767,12.9748284 15.3212724,12.5353232 14.922575,12.351678 L14.8091312,12.3081505 L10.8948163,11.0893518 L14.8091312,12.3081505 Z M16.5234416,8.11875518 L12.608974,6.89995644 C12.1368567,6.75288339 11.6285543,6.99693851 11.4736461,7.44492674 C11.3316707,7.85553748 11.5358817,8.29508405 11.9345534,8.47869821 L12.0479894,8.52221534 L15.962457,9.74103869 C16.0555783,9.77001024 16.1501003,9.78379449 16.243092,9.78379449 C16.6213098,9.78379449 16.973407,9.55561587 17.0977849,9.19604379 C17.2397603,8.78543304 17.0355275,8.34588647 16.6368722,8.16227231 L16.5234416,8.11875518 L12.608974,6.89995644 L16.5234416,8.11875518 Z" id="形状" fill="#F8AB29" fill-rule="nonzero"></path>
            </g>
        </g>
    </g>
</svg>