<?xml version="1.0" encoding="UTF-8"?>
<svg width="58px" height="58px" viewBox="0 0 58 58" version="1.1" xmlns="http://www.w3.org/2000/svg" xmlns:xlink="http://www.w3.org/1999/xlink">
    <!-- Generator: Sketch 59.1 (86144) - https://sketch.com -->
    <title>过期</title>
    <desc>Created with Sketch.</desc>
    <g id="页面-1" stroke="none" stroke-width="1" fill="none" fill-rule="evenodd" opacity="0.4">
        <g id="使用优惠券" transform="translate(-289.000000, -275.000000)" fill="#BBBBBB" fill-rule="nonzero">
            <g id="过期" transform="translate(289.000000, 275.000000)">
                <path d="M19.0291284,13.9308802 L20.1183874,13.0865433 L21.5041312,13.2090044 L20.9627244,12.0037296 L21.5041312,10.7984547 L20.1183874,10.9209158 L19.0291284,10.0765789 L18.7261983,11.2818537 L17.5209235,11.932831 L18.7261983,12.596699 L19.0291284,13.9308802 L19.0291284,13.9308802 Z M38.3844243,12.4806832 L39.3512223,13.4474812 L39.7766134,12.1713079 L40.9818883,11.5590025 L39.828176,10.7146656 L39.5961445,9.38692964 L38.5068854,10.179704 L37.1791495,9.94767248 L37.6045406,11.2754084 L36.9922352,12.4806832 L38.3844243,12.4806832 Z M27.5305054,10.9144705 L28.8582414,10.5599779 L30.1344147,11.2238458 L30.1344147,9.89610992 L31.1012127,8.9873198 L29.7734768,8.51036612 L29.1224995,7.29864596 L28.3361704,8.31700652 L26.9504266,8.49747548 L27.7947636,9.58673456 L27.5305054,10.9144705 L27.5305054,10.9144705 Z M13.2347857,18.9324486 L14.2015837,19.8992466 L14.6785374,18.6230732 L15.9547107,18.0107678 L14.8654516,17.2373294 L14.6849827,15.9095935 L13.5312704,16.6959225 L12.2035345,16.5154536 L12.5580271,17.7916269 L11.8941591,18.9969018 L13.2347857,18.9324486 L13.2347857,18.9324486 Z M39.2932144,45.0166586 L38.2748539,45.8609955 L36.8762194,45.7385344 L37.4240716,46.9438093 L36.8762194,48.1490841 L38.2748539,48.026623 L39.2932144,48.87096 L39.5961445,47.5947866 L40.8014193,46.9309186 L39.5961445,46.2670507 L39.2932144,45.0166586 L39.2932144,45.0166586 Z M30.8433999,47.3627551 L29.515664,47.7172477 L28.3103892,47.0533797 L28.3103892,48.3811156 L27.3435912,49.2899058 L28.6777724,49.7668594 L29.2900778,50.9721343 L30.0764068,49.9537737 L31.4041428,49.7733048 L30.6822669,48.6840457 L30.8433999,47.3627551 L30.8433999,47.3627551 Z M20.6404584,45.8416596 L19.6736604,44.8748616 L19.2547146,46.1510349 L18.0494397,46.7633403 L19.1386988,47.6076772 L19.3707303,48.9354132 L20.4599894,48.1490841 L21.7877253,48.3811156 L21.3687795,47.0533797 L21.9810849,45.8481049 L20.6404584,45.8416596 L20.6404584,45.8416596 Z M29.0387103,0.17012204 C13.1574418,0.17012204 0.24746588,13.0736527 0.24746588,28.9549212 C0.24746588,44.823299 13.1638872,57.7461656 29.0387103,57.7461656 C44.9070882,57.7461656 57.8299548,44.823299 57.8299548,28.9549212 C57.8299548,13.0865433 44.9070882,0.17012204 29.0387103,0.17012204 Z M29.0387103,55.8125696 C14.2531462,55.8125696 2.18106188,43.7404852 2.18106188,28.9549212 C2.18106188,14.1693571 14.2531462,2.09727272 29.0387103,2.09727272 C43.8242744,2.09727272 55.8963588,14.1049039 55.8963588,28.9549212 C55.8963588,43.7404852 43.8307197,55.8125696 29.0387103,55.8125696 Z M29.0387103,4.81719776 C15.6968979,4.81719776 4.8945416,15.6195541 4.8945416,28.9549212 C4.8945416,42.2967336 15.6968979,53.0990899 29.032265,53.0990899 C42.3740774,53.0990899 53.1699884,42.2967336 53.1699884,28.9549212 C53.1119805,15.6131088 42.3096242,4.81719776 29.0387103,4.81719776 Z M46.9502546,39.3318864 L45.9834566,38.4875494 L45.628964,39.8152854 L44.4236892,40.5371612 L45.5774014,41.259037 L45.809433,42.586773 L46.898692,41.742436 L48.226428,41.8648971 C44.0563059,48.0330684 37.0566884,52.1258466 29.0838276,52.1258466 C16.3543206,52.1258466 6.02891792,41.8004439 6.02891792,29.0709369 C6.02891792,16.3414299 16.3543206,6.01602728 29.0838276,6.01602728 C41.8133346,6.01602728 52.1322919,16.3349846 52.1322919,29.0644916 C52.1322919,33.7760205 50.6820949,38.1781741 48.2586546,41.8455612 L47.8332634,40.6402863 L48.4262329,39.364113 L46.9502546,39.3318864 L46.9502546,39.3318864 Z M38.519776,17.3726811 C35.8385229,15.194163 32.5062925,14.0017788 29.0387103,13.9888881 C21.8521785,13.9888881 15.6968979,19.1129175 14.3111541,26.1189804 L15.2779521,26.2994493 C16.483227,19.705887 22.2775696,14.9556861 29.0387103,14.9556861 C32.3000422,14.9556861 35.4260224,16.1093984 37.913916,18.1461195 L38.519776,17.3726811 Z M29.0387103,42.9606015 C25.7967144,42.9606015 22.6578435,41.8262252 20.1635047,39.7572775 L19.5511993,40.4791533 C22.2324524,42.6512262 25.5646828,43.8500557 29.032265,43.8629463 C36.2187968,43.8629463 42.3740774,38.7260263 43.7469306,31.7328541 L42.7801326,31.5523851 C41.5361858,38.1846194 35.7353978,42.9606015 29.0387103,42.9606015 L29.0387103,42.9606015 Z M16.8892821,39.8604026 C15.5744368,40.3566922 14.6849827,39.969973 14.2402556,38.7066903 L12.2099798,33.06059 L13.544161,32.5643004 L14.0726773,34.0209427 L20.2924111,31.6877368 L19.2804958,28.8646867 L11.4558774,31.7973073 L11.0175956,30.5726965 L20.1312781,27.1373409 L22.0068662,32.3644954 L14.5045137,35.1875456 L15.4648664,37.875244 C15.7097886,38.6680184 16.2189688,38.9129406 16.9730713,38.5971199 L21.7232721,36.8246569 C22.5804997,36.5797347 22.928547,36.0512185 22.7803046,35.2519988 C22.7222967,35.0973111 22.6771795,34.8652796 22.6385076,34.5559042 C22.5547184,34.2594195 22.4838199,33.9758254 22.425812,33.6664501 C22.728742,33.6535594 23.1605785,33.6277782 23.7019854,33.563325 C23.7728839,33.5762156 23.8244464,33.5762156 23.856673,33.5504343 C23.9791341,34.1627397 24.0887046,34.7814904 24.2047203,35.4066865 C24.4109706,36.5410628 23.8695637,37.3209465 22.5740544,37.7205564 C22.567609,37.7398923 16.8892821,39.8604026 16.8892821,39.8604026 L16.8892821,39.8604026 Z M29.9346098,30.3600009 C29.5478906,30.0764068 28.9484758,29.6896876 28.0976936,29.1805074 C27.8334355,29.0387103 27.5691774,28.8840226 27.3113646,28.729335 L27.9945685,27.7303104 C29.0644916,28.2910532 29.9603911,28.7873428 30.6758216,29.2385152 L29.9346098,30.3600009 Z M26.5830434,27.5562867 L26.1769882,26.4219104 L30.5984778,24.7719085 L29.8830472,22.7931952 L31.1785566,22.3162416 L31.8939871,24.2949548 L33.543989,23.6633134 L33.9500442,24.7976898 L32.3000422,25.4164405 L33.7566846,29.515664 C34.2271929,30.7209388 33.8791456,31.5652758 32.7060974,31.9906669 C32.2871516,32.1840265 31.7070728,32.416058 30.9723063,32.6867614 C30.9014078,32.5836363 30.8498452,32.4805112 30.7982827,32.3709408 C30.6178137,32.074456 30.4308994,31.7973073 30.2375398,31.5137132 C30.6758216,31.3912521 31.2043378,31.2107832 31.8295339,30.9723063 C32.4934018,30.7918374 32.6867614,30.3922275 32.3773861,29.7476955 L30.9980876,25.8740582 L26.5830434,27.5562867 Z M26.3574572,36.8311022 L25.2875341,35.7418431 C25.5002296,35.3744599 25.828941,34.7234826 26.2543321,33.7760205 L25.0490572,30.4437901 L23.714876,30.9400797 L23.2765942,29.7154689 L25.8031597,28.7680069 L27.4338256,33.2926215 C28.4135143,33.9564895 29.4641014,34.0789506 30.5920324,33.6600048 C33.2346136,32.6738708 35.1875456,31.9197684 36.4701643,31.3976974 C36.4701643,31.7973073 36.4830549,32.235589 36.4830549,32.7318787 C34.9232875,33.3119575 32.9896915,34.008052 30.6951576,34.8008264 C29.4189842,35.3228973 28.2717172,35.2519988 27.2275754,34.6074668 C26.8150749,35.4131318 26.5314808,36.1607889 26.3574572,36.8311022 L26.3574572,36.8311022 Z M24.9394868,27.9623419 C24.5849942,27.6336306 23.9275716,27.1051143 22.9736642,26.4025744 C22.8705391,26.3316759 22.7803046,26.2672227 22.6900701,26.1898789 L23.4957351,25.2424168 C24.217611,25.6806986 24.9910494,26.2221055 25.8611676,26.8730828 L24.9394868,27.9623419 Z M43.1475158,23.8051105 C43.2828675,24.1918297 43.4053286,24.5592129 43.5020084,24.9588228 L45.3904872,24.2433922 L44.7137286,22.3613588 L42.870367,23.0574534 L43.1475158,23.8051105 Z M41.8004439,20.0990515 L42.4707572,21.9875302 L44.3141187,21.2914357 L43.6438054,19.4029569 L41.8004439,20.0990515 Z M42.1356006,30.4953526 C41.8004439,30.2891024 41.439506,30.1086334 41.0850134,29.9217192 C40.7820834,29.7476955 40.472708,29.5865625 40.169778,29.3996482 L40.7627474,28.4199596 C41.4846232,28.7551162 42.1291552,29.051601 42.6963434,29.2965231 C43.0830626,28.1170296 42.8188045,26.3896838 41.942241,24.1209312 L40.2213405,19.3191678 L44.359236,17.7594003 L47.7623649,27.2275754 C48.045959,28.0139044 47.8203728,28.5617566 47.098497,28.8582414 C46.9760359,28.8969133 46.7504497,28.9935931 46.4024024,29.1160542 C46.0736911,29.2707418 45.8416596,29.3803123 45.6805266,29.4447655 C45.609628,29.3609763 45.5000576,29.1805074 45.326034,28.8840226 L44.9908773,28.3619517 C45.3453699,28.2588266 45.7127532,28.1492562 46.0736911,28.0139044 C46.5119728,27.8914434 46.6537699,27.6271852 46.4926369,27.259802 L45.7772064,25.2810888 L43.8436104,26.0029646 C44.2432202,27.4918335 44.2432202,28.9355852 43.8307197,30.3342196 C43.5020084,30.2246492 43.1668518,30.1215241 42.8316951,30.018399 C42.709234,29.9603911 42.6061089,29.9152738 42.5352104,29.9152738 L42.6254449,29.7219142 C42.6383355,29.6381251 42.6383355,29.5865625 42.6641168,29.5414453 L42.1356006,30.4953526 L42.1356006,30.4953526 Z M37.913916,26.9955439 L38.3006352,28.0783576 L40.330911,27.3242552 L39.9441918,26.2414414 L37.913916,26.9955439 Z M38.5068854,32.274261 C37.9268066,32.0100028 37.5271968,31.8359792 37.3467278,31.8037526 C37.8687987,30.824064 38.236182,29.9926177 38.4359869,29.3094138 L39.6412617,29.6058985 C39.3061051,30.5146886 38.9258312,31.4105881 38.5068854,32.274261 Z M37.1920401,24.9588228 L37.5787593,26.0416365 L39.6090351,25.2875341 L39.2223159,24.2047203 L37.1920401,24.9588228 Z M36.4701643,22.9478829 L36.8568835,24.0306967 L38.8871593,23.2765942 L38.5004401,22.1937805 L36.4701643,22.9478829 Z M34.5816855,23.6568681 L34.2143023,22.6191716 L34.9490688,22.3549135 L34.530123,21.1754199 L35.6838352,20.7371382 L36.122117,21.9101864 L38.1523928,21.156084 L37.714111,19.9314732 L38.8678233,19.4931914 L39.3061051,20.7178022 L40.0408716,20.4535441 L40.4082548,21.4912406 L39.6734883,21.7554987 L41.5168498,26.8924188 L42.3934134,26.5637074 L42.7607966,27.601404 L36.6764145,29.8830472 L36.3090313,28.8453507 L37.1855948,28.5166394 L35.3293426,23.3797194 L34.5816855,23.6568681 L34.5816855,23.6568681 Z" id="形状"></path>
            </g>
        </g>
    </g>
</svg>