<?xml version="1.0" encoding="UTF-8"?>
<svg width="20px" height="18px" viewBox="0 0 20 18" version="1.1" xmlns="http://www.w3.org/2000/svg" xmlns:xlink="http://www.w3.org/1999/xlink">
    <!-- Generator: Sketch 59.1 (86144) - https://sketch.com -->
    <title>编组 4备份 2</title>
    <desc>Created with Sketch.</desc>
    <g id="页面-1" stroke="none" stroke-width="1" fill="none" fill-rule="evenodd">
        <g id="我的" transform="translate(-26.000000, -421.000000)">
            <g id="编组-4备份-2" transform="translate(24.000000, 418.000000)">
                <rect id="矩形" fill="#000000" opacity="0" x="0" y="0" width="24" height="24"></rect>
                <path d="M15.1633705,3.09231013 C16.3882811,3.09231013 17.5201452,3.74579216 18.1326005,4.80659585 L21.295971,10.2857143 C21.9084263,11.346518 21.9084263,12.653482 21.295971,13.7142857 L18.1326005,19.1934042 C17.5201452,20.2542078 16.3882811,20.9076899 15.1633705,20.9076899 L8.83662949,20.9076899 C7.6117189,20.9076899 6.47985484,20.2542078 5.86739954,19.1934042 L2.70402903,13.7142857 C2.09157374,12.653482 2.09157374,11.346518 2.70402903,10.2857143 L5.86739954,4.80659585 C6.47985484,3.74579216 7.6117189,3.09231013 8.83662949,3.09231013 L15.1633705,3.09231013 Z M12,8.57142857 C10.1064523,8.57142857 8.57142857,10.1064523 8.57142857,12 C8.57142857,13.8935477 10.1064523,15.4285714 12,15.4285714 C13.8935477,15.4285714 15.4285714,13.8935477 15.4285714,12 C15.4285714,10.1064523 13.8935477,8.57142857 12,8.57142857 Z M12,10.2857143 C12.9467739,10.2857143 13.7142857,11.0532261 13.7142857,12 C13.7142857,12.9467739 12.9467739,13.7142857 12,13.7142857 C11.0532261,13.7142857 10.2857143,12.9467739 10.2857143,12 C10.2857143,11.0532261 11.0532261,10.2857143 12,10.2857143 Z" id="形状" fill="#1B81FF"></path>
            </g>
        </g>
    </g>
</svg>