<?xml version="1.0" encoding="UTF-8"?>
<svg width="34px" height="34px" viewBox="0 0 34 34" version="1.1" xmlns="http://www.w3.org/2000/svg" xmlns:xlink="http://www.w3.org/1999/xlink">
    <!-- Generator: Sketch 59.1 (86144) - https://sketch.com -->
    <title>形状</title>
    <desc>Created with Sketch.</desc>
    <g id="页面-1" stroke="none" stroke-width="1" fill="none" fill-rule="evenodd">
        <g id="个人设置" transform="translate(-309.000000, -83.000000)" fill="#D0D0D0" fill-rule="nonzero">
            <path d="M343,100.018718 C343,109.397678 335.388309,117.002256 325.998222,117.002256 C316.609014,117.002256 309,109.39764 309,100.018718 C309,92.8195914 313.480961,86.6690634 319.809302,84.1973116 C321.721383,83.4259861 323.810282,83 325.998643,83 C328.189679,83 330.276858,83.4255272 332.190737,84.1973116 C338.518657,86.6691016 343,92.8196296 343,100.018718 M319.464383,96.4369934 C319.464383,99.2990923 320.930861,101.777077 323.062589,102.98999 C323.946682,103.493067 324.942128,103.78315 325.998222,103.78315 C327.017262,103.78315 327.977987,103.511804 328.838907,103.043028 C331.020996,101.85325 332.534738,99.3449795 332.534738,96.4374523 C332.534738,92.3891695 329.603158,89.093972 325.99826,89.093972 C322.395542,89.0935896 319.464383,92.3887871 319.464383,96.4369934 M326.067282,115.901652 C331.033921,115.901652 335.464482,113.61754 338.368453,110.042966 C338.02537,107.223198 335.277759,104.822801 331.389087,103.625413 C329.920391,104.94662 328.043949,105.741578 325.997725,105.741578 C323.90611,105.741578 321.991391,104.903869 320.508469,103.525188 C316.725721,104.604837 313.955014,106.807002 313.305366,109.445821 C316.187005,113.360381 320.831515,115.901652 326.067282,115.901652" id="形状"></path>
        </g>
    </g>
</svg>