<?xml version="1.0" encoding="UTF-8"?>
<svg width="16px" height="21px" viewBox="0 0 16 21" version="1.1" xmlns="http://www.w3.org/2000/svg" xmlns:xlink="http://www.w3.org/1999/xlink">
    <!-- Generator: Sketch 59.1 (86144) - https://sketch.com -->
    <title>编组 4备份</title>
    <desc>Created with Sketch.</desc>
    <g id="页面-1" stroke="none" stroke-width="1" fill="none" fill-rule="evenodd">
        <g id="我的" transform="translate(-28.000000, -362.000000)">
            <g id="编组-4备份" transform="translate(24.000000, 361.000000)">
                <rect id="矩形" fill="#000000" opacity="0" x="0" y="0" width="24" height="24"></rect>
                <g id="编组-3" transform="translate(4.000000, 1.142857)" fill="#F8AB29" fill-rule="nonzero">
                    <path d="M5.71428571,19.1428571 L10.2857143,19.1428571 C10.7591012,19.1428571 11.1428571,19.5266131 11.1428571,20 C11.1428571,20.433938 10.8203956,20.7925611 10.4020235,20.8493182 L10.2857143,20.8571429 L5.71428571,20.8571429 C5.24089879,20.8571429 4.85714286,20.4733869 4.85714286,20 C4.85714286,19.566062 5.17960444,19.2074389 5.59797651,19.1506818 L5.71428571,19.1428571 L10.2857143,19.1428571 L5.71428571,19.1428571 Z M8,0.285714286 C12.2551627,0.285714286 15.7142857,3.64875053 15.7142857,7.80952381 C15.7142857,10.6413629 14.096144,13.1801962 11.6008215,14.4651542 L11.6,17.1431201 C11.5998548,17.6164043 11.2161414,18 10.7428571,18 L5.25714286,18 C4.78385862,18 4.40014523,17.6164043 4.40000004,17.1431201 L4.39917849,14.4651542 L4.13521282,14.3227259 C1.79033836,12.9984772 0.285714286,10.5402258 0.285714286,7.80952381 C0.285714286,3.64875053 3.74483728,0.285714286 8,0.285714286 Z" id="形状"></path>
                </g>
            </g>
        </g>
    </g>
</svg>