<?xml version="1.0" encoding="UTF-8"?>
<svg width="48px" height="48px" viewBox="0 0 48 48" version="1.1" xmlns="http://www.w3.org/2000/svg" xmlns:xlink="http://www.w3.org/1999/xlink">
    <!-- Generator: Sketch 59.1 (86144) - https://sketch.com -->
    <title>中奖备份</title>
    <desc>Created with Sketch.</desc>
    <g id="页面-1" stroke="none" stroke-width="1" fill="none" fill-rule="evenodd">
        <g id="方案详情-中奖结果（2中1）" transform="translate(-311.000000, -580.000000)" fill="#D7D7D7">
            <g id="中奖备份" transform="translate(311.000000, 580.000000)">
                <path d="M11.2379537,38.9231852 L12.2453785,38.3463681 L12.2453774,38.3463672 C20.1674061,44.8391741 31.8529665,43.6805641 38.3457686,35.7584919 C41.7261781,31.6339586 43.1675485,26.2538716 42.3019339,20.9917769 L43.3093587,20.4109553 L43.3093586,20.4109553 C45.2952359,31.0721201 38.2625413,41.3246123 27.6013375,43.3104723 C21.7634627,44.3979096 15.7470225,42.7849998 11.2359481,38.9231651 L11.237951,38.9231651 L11.2379537,38.9231852 Z M4.69267109,27.589114 L4.69267018,27.5891092 C2.70791949,16.9277096 9.74174068,6.67601547 20.4030853,4.69123514 C26.2393172,3.60475074 32.2537388,5.21695642 36.7640622,9.07688523 L35.754633,9.65770644 L35.754633,9.65770647 C27.8324165,3.16513427 16.1469031,4.32407286 9.65433571,12.2462765 C6.27466317,16.3701339 4.83330683,21.749066 5.69809998,27.0102689 L4.6906752,27.5910901 L4.69267801,27.5890873 L4.69267109,27.589114 Z M7.27631095,41.2143996 L9.24912381,40.0747868 L9.24912443,40.0747874 C13.26944,43.7753029 18.5358823,45.8261065 24.0000092,45.8189244 C36.0510558,45.8189244 45.8189166,36.0511032 45.8189166,24.0000007 C45.8189166,22.3716941 45.6386614,20.785447 45.3001806,19.2592851 L47.2749751,18.1196723 C47.7496471,20.0023408 48,21.9711282 48,23.9999866 C48,37.254763 37.254771,48 24.0000045,48 C17.4987999,48 11.598446,45.4163401 7.27631095,41.214372 L7.27631095,41.2143996 Z M0.725037972,29.8783569 L0.725037775,29.8783561 C0.242085247,27.9562709 -0.00143766521,25.9818599 6.38451169e-06,24.0000134 C6.38451169e-06,10.745237 10.7452419,0 24.0000064,0 C30.5012129,0 36.4015668,2.58365994 40.7237019,6.78562796 L38.7509072,7.92524075 L38.7509071,7.92524064 C34.7305915,4.22472515 29.4641492,2.1739216 24.0000223,2.18110365 C11.9489757,2.18110365 2.18111484,11.9489249 2.18111484,24.0000274 C2.18111484,25.628334 2.36137005,27.214581 2.69985085,28.740743 L0.725056438,29.8803557 L0.725037972,29.8783569 Z M42.9468168,15.8945322 L41.6509837,18.2718983 L41.6509837,18.2718983 C41.5355645,18.4836195 41.2703649,18.5616874 41.0586435,18.4462682 C40.9581047,18.3914597 40.8831214,18.2993488 40.8498488,18.1897817 L40.0787555,15.5941047 L37.4149825,15.0953983 L37.4149824,15.0953983 C37.1782463,15.0495369 37.0235118,14.820446 37.0693731,14.5837078 C37.091006,14.4720392 37.1553624,14.3732207 37.2487472,14.3082814 L39.4779033,12.7721069 L39.1294099,10.0883066 L39.1294099,10.0883065 C39.0979977,9.84922358 39.266348,9.62994389 39.5054307,9.59853299 C39.6194656,9.58355039 39.734806,9.61416817 39.8263967,9.68373509 L41.9754378,11.3260631 L44.4188958,10.1664204 L44.4188958,10.1664204 C44.6360183,10.0615146 44.8970744,10.1524842 45.0019791,10.3696067 C45.0529895,10.4751828 45.0593928,10.5968387 45.0197465,10.7071865 L44.1204748,13.2587994 L45.983112,15.2275868 L45.983112,15.2275868 C46.1479878,15.4035508 46.1389985,15.6798564 45.9630347,15.8447314 C45.8796319,15.9228786 45.7689116,15.9652067 45.6546471,15.9626273 L42.9468149,15.8965337 L42.9468149,15.8945308 L42.9468168,15.8945322 Z M7.04598736,36.6178883 L5.75215395,38.9952545 L5.75215393,38.9952545 C5.6380491,39.2076868 5.37333822,39.2873968 5.16090745,39.1732914 C5.05844692,39.1182563 4.98217925,39.0246159 4.94901792,38.9131379 L4.17592492,36.3174609 L1.51415631,35.8187545 L1.51415628,35.8187544 C1.27725352,35.7737602 1.12168107,35.5452376 1.1666754,35.3083361 C1.18796838,35.1962248 1.25230742,35.096905 1.34591808,35.0316409 L3.57507419,33.4954663 L3.22658078,30.8096617 L3.22658078,30.8096616 C3.19422661,30.5707041 3.36171163,30.350763 3.60066855,30.3184095 C3.71619805,30.3027671 3.83318556,30.3339779 3.92557058,30.4050893 L6.0746117,32.0514215 L8.52007405,30.8897743 L8.52007402,30.8897744 C8.73719659,30.7848686 8.99825261,30.8758382 9.10315738,31.0929606 C9.15416773,31.1985367 9.16057101,31.3201927 9.12092473,31.4305404 L8.21964867,33.9821534 L10.0802814,35.9509407 L10.0802815,35.9509408 C10.2451572,36.1269047 10.236168,36.4032103 10.0602041,36.5680853 C9.97680136,36.6462326 9.86608101,36.6885607 9.7518161,36.6859812 L7.04798794,36.6198876 L7.04598514,36.6178847 L7.04598736,36.6178883 Z" id="形状" fill-rule="nonzero"></path>
                <text id="未中" transform="translate(24.750000, 24.713397) rotate(-30.000000) translate(-24.750000, -24.713397) " font-family="PingFangSC-Medium, PingFang SC" font-size="13.6" font-weight="400">
                    <tspan x="11.15" y="29.2133975">未中</tspan>
                </text>
            </g>
        </g>
    </g>
</svg>